<?xml version="1.0" encoding="utf-8"?><svg width="auto" height="5570" style="overflow:visible " version="1.1" xmlns="http://www.w3.org/2000/svg"><rect x="20" y="20" width="200" height="40" style="fill:white;stroke:black;stroke-width:1" /><text x="30" y="30" font-size="10" style="fill:blue">rutas</text><rect x="240" y="20" width="200" height="40" style="fill:white;stroke:black;stroke-width:1" /><text x="250" y="30" font-size="10" style="fill:blue">ruta</text><path d="M220 40 C240 40 220 40 240 40" style="fill:transparent;stroke:black" /><text x="250" y="40" font-size="8" style="fill:black">nombreRuta: Ruta costera</text><text x="250" y="50" font-size="8" style="fill:black">tipo: Paisajística y gastronómica</text><text x="250" y="60" font-size="8" style="fill:black">medio: A pie</text><rect x="460" y="20" width="200" height="40" style="fill:white;stroke:black;stroke-width:1" /><text x="470" y="30" font-size="10" style="fill:blue">tiempo</text><path d="M440 40 C460 40 440 40 460 40" style="fill:transparent;stroke:black" /><rect x="526" y="20" width="137" height="40" style="fill:green;stroke:black;stroke-width:1" /><text x="536" y="30" font-size="8" style="fill:white">1 hora y media</text><rect x="460" y="70" width="200" height="40" style="fill:white;stroke:black;stroke-width:1" /><text x="470" y="80" font-size="10" style="fill:blue">agencia</text><path d="M440 40 C460 40 440 90 460 90" style="fill:transparent;stroke:black" /><rect x="526" y="70" width="137" height="40" style="fill:green;stroke:black;stroke-width:1" /><text x="536" y="80" font-size="8" style="fill:white">Sin agencia</text><rect x="460" y="120" width="200" height="40" style="fill:white;stroke:black;stroke-width:1" /><text x="470" y="130" font-size="10" style="fill:blue">descripcionRuta</text><path d="M440 40 C460 40 440 140 460 140" style="fill:transparent;stroke:black" /><rect x="526" y="120" width="137" height="40" style="fill:green;stroke:black;stroke-width:1" /><text x="536" y="130" font-size="8" style="fill:white">Ruta costera al norte de Brunéi</text><rect x="460" y="170" width="200" height="40" style="fill:white;stroke:black;stroke-width:1" /><text x="470" y="180" font-size="10" style="fill:blue">adecuado</text><path d="M440 40 C460 40 440 190 460 190" style="fill:transparent;stroke:black" /><rect x="526" y="170" width="137" height="40" style="fill:green;stroke:black;stroke-width:1" /><text x="536" y="180" font-size="8" style="fill:white">Se puede ir con niños</text><rect x="460" y="220" width="200" height="40" style="fill:white;stroke:black;stroke-width:1" /><text x="470" y="230" font-size="10" style="fill:blue">lugarInicio</text><path d="M440 40 C460 40 440 240 460 240" style="fill:transparent;stroke:black" /><rect x="526" y="220" width="137" height="40" style="fill:green;stroke:black;stroke-width:1" /><text x="536" y="230" font-size="8" style="fill:white">Pantai Seri Kenangan</text><rect x="460" y="270" width="200" height="40" style="fill:white;stroke:black;stroke-width:1" /><text x="470" y="280" font-size="10" style="fill:blue">direccionInicio</text><path d="M440 40 C460 40 440 290 460 290" style="fill:transparent;stroke:black" /><rect x="526" y="270" width="137" height="40" style="fill:green;stroke:black;stroke-width:1" /><text x="536" y="280" font-size="8" style="fill:white">625, Jalan Kuala Tutong, Kampong Kuala Tutong, Brunei, Tutong TA3341, Brunéi</text><rect x="460" y="320" width="200" height="40" style="fill:white;stroke:black;stroke-width:1" /><text x="470" y="330" font-size="10" style="fill:blue">coordenadasRuta</text><path d="M440 40 C460 40 440 340 460 340" style="fill:transparent;stroke:black" /><text x="470" y="340" font-size="8" style="fill:black">altitud: 0</text><text x="470" y="350" font-size="8" style="fill:black">latitud: 4.197431</text><text x="470" y="360" font-size="8" style="fill:black">longitud: 114.043168</text><rect x="526" y="320" width="137" height="40" style="fill:green;stroke:black;stroke-width:1" /><text x="536" y="330" font-size="8" style="fill:white">Inicio de la ruta</text><rect x="460" y="370" width="200" height="40" style="fill:white;stroke:black;stroke-width:1" /><text x="470" y="380" font-size="10" style="fill:blue">referencias</text><path d="M440 40 C460 40 440 390 460 390" style="fill:transparent;stroke:black" /><rect x="680" y="370" width="200" height="40" style="fill:white;stroke:black;stroke-width:1" /><text x="690" y="380" font-size="10" style="fill:blue">referencia</text><path d="M660 390 C680 390 660 390 680 390" style="fill:transparent;stroke:black" /><rect x="746" y="370" width="137" height="40" style="fill:green;stroke:black;stroke-width:1" /><text x="756" y="380" font-size="8" style="fill:white">https://es.wikipedia.org/wiki/Geograf%C3%ADa_de_Brun%C3%A9i</text><rect x="680" y="420" width="200" height="40" style="fill:white;stroke:black;stroke-width:1" /><text x="690" y="430" font-size="10" style="fill:blue">referencia</text><path d="M660 390 C680 390 660 440 680 440" style="fill:transparent;stroke:black" /><rect x="746" y="420" width="137" height="40" style="fill:green;stroke:black;stroke-width:1" /><text x="756" y="430" font-size="8" style="fill:white">https://es.wikiloc.com/rutas/a-pie/brunei</text><rect x="680" y="470" width="200" height="40" style="fill:white;stroke:black;stroke-width:1" /><text x="690" y="480" font-size="10" style="fill:blue">referencia</text><path d="M660 390 C680 390 660 490 680 490" style="fill:transparent;stroke:black" /><rect x="746" y="470" width="137" height="40" style="fill:green;stroke:black;stroke-width:1" /><text x="756" y="480" font-size="8" style="fill:white">https://www.tripadvisor.es/Attraction_Review-g3135192-d447284-Reviews-Pantai_Seri_Kenangan-Tutong_Tutong_District.html</text><rect x="460" y="570" width="200" height="40" style="fill:white;stroke:black;stroke-width:1" /><text x="470" y="580" font-size="10" style="fill:blue">recomendacion</text><path d="M440 40 C460 40 440 590 460 590" style="fill:transparent;stroke:black" /><rect x="526" y="570" width="137" height="40" style="fill:green;stroke:black;stroke-width:1" /><text x="536" y="580" font-size="8" style="fill:white">8</text><rect x="460" y="620" width="200" height="40" style="fill:white;stroke:black;stroke-width:1" /><text x="470" y="630" font-size="10" style="fill:blue">hitos</text><path d="M440 40 C460 40 440 640 460 640" style="fill:transparent;stroke:black" /><rect x="680" y="620" width="200" height="40" style="fill:white;stroke:black;stroke-width:1" /><text x="690" y="630" font-size="10" style="fill:blue">hito</text><path d="M660 640 C680 640 660 640 680 640" style="fill:transparent;stroke:black" /><rect x="900" y="620" width="200" height="40" style="fill:white;stroke:black;stroke-width:1" /><text x="910" y="630" font-size="10" style="fill:blue">nombreHito</text><path d="M880 640 C900 640 880 640 900 640" style="fill:transparent;stroke:black" /><rect x="966" y="620" width="137" height="40" style="fill:green;stroke:black;stroke-width:1" /><text x="976" y="630" font-size="8" style="fill:white">Kampong Penabai, Kuala Tutong Mosque</text><rect x="900" y="670" width="200" height="40" style="fill:white;stroke:black;stroke-width:1" /><text x="910" y="680" font-size="10" style="fill:blue">descripcionHito</text><path d="M880 640 C900 640 880 690 900 690" style="fill:transparent;stroke:black" /><rect x="966" y="670" width="137" height="40" style="fill:green;stroke:black;stroke-width:1" /><text x="976" y="680" font-size="8" style="fill:white">Mezquita</text><rect x="900" y="720" width="200" height="40" style="fill:white;stroke:black;stroke-width:1" /><text x="910" y="730" font-size="10" style="fill:blue">coordenadasHito</text><path d="M880 640 C900 640 880 740 900 740" style="fill:transparent;stroke:black" /><text x="910" y="740" font-size="8" style="fill:black">altitud: 0</text><text x="910" y="750" font-size="8" style="fill:black">longitud: 4.790276596834284</text><text x="910" y="760" font-size="8" style="fill:black">latitud: 114.61899278378765</text><rect x="966" y="720" width="137" height="40" style="fill:green;stroke:black;stroke-width:1" /><text x="976" y="730" font-size="8" style="fill:white">Coordenadas Kampong Penabai</text><rect x="900" y="770" width="200" height="40" style="fill:white;stroke:black;stroke-width:1" /><text x="910" y="780" font-size="10" style="fill:blue">distanciaHitoAnterior</text><path d="M880 640 C900 640 880 790 900 790" style="fill:transparent;stroke:black" /><text x="910" y="790" font-size="8" style="fill:black">unidades: km</text><rect x="966" y="770" width="137" height="40" style="fill:green;stroke:black;stroke-width:1" /><text x="976" y="780" font-size="8" style="fill:white">2.5</text><rect x="900" y="820" width="200" height="40" style="fill:white;stroke:black;stroke-width:1" /><text x="910" y="830" font-size="10" style="fill:blue">galeriaFotos</text><path d="M880 640 C900 640 880 840 900 840" style="fill:transparent;stroke:black" /><rect x="1120" y="820" width="200" height="40" style="fill:white;stroke:black;stroke-width:1" /><text x="1130" y="830" font-size="10" style="fill:blue">foto</text><path d="M1100 840 C1120 840 1100 840 1120 840" style="fill:transparent;stroke:black" /><rect x="1186" y="820" width="137" height="40" style="fill:green;stroke:black;stroke-width:1" /><text x="1196" y="830" font-size="8" style="fill:white">KualaTotongMosque.jpg</text><rect x="1120" y="870" width="200" height="40" style="fill:white;stroke:black;stroke-width:1" /><text x="1130" y="880" font-size="10" style="fill:blue">foto</text><path d="M1100 840 C1120 840 1100 890 1120 890" style="fill:transparent;stroke:black" /><rect x="1186" y="870" width="137" height="40" style="fill:green;stroke:black;stroke-width:1" /><text x="1196" y="880" font-size="8" style="fill:white">KualaTotongMosque2.jpg</text><rect x="680" y="1020" width="200" height="40" style="fill:white;stroke:black;stroke-width:1" /><text x="690" y="1030" font-size="10" style="fill:blue">hito</text><path d="M660 640 C680 640 660 1040 680 1040" style="fill:transparent;stroke:black" /><rect x="900" y="1020" width="200" height="40" style="fill:white;stroke:black;stroke-width:1" /><text x="910" y="1030" font-size="10" style="fill:blue">nombreHito</text><path d="M880 1040 C900 1040 880 1040 900 1040" style="fill:transparent;stroke:black" /><rect x="966" y="1020" width="137" height="40" style="fill:green;stroke:black;stroke-width:1" /><text x="976" y="1030" font-size="8" style="fill:white">Istana Pantai</text><rect x="900" y="1070" width="200" height="40" style="fill:white;stroke:black;stroke-width:1" /><text x="910" y="1080" font-size="10" style="fill:blue">descripcionHito</text><path d="M880 1040 C900 1040 880 1090 900 1090" style="fill:transparent;stroke:black" /><rect x="966" y="1070" width="137" height="40" style="fill:green;stroke:black;stroke-width:1" /><text x="976" y="1080" font-size="8" style="fill:white">Castillo</text><rect x="900" y="1120" width="200" height="40" style="fill:white;stroke:black;stroke-width:1" /><text x="910" y="1130" font-size="10" style="fill:blue">coordenadasHito</text><path d="M880 1040 C900 1040 880 1140 900 1140" style="fill:transparent;stroke:black" /><text x="910" y="1140" font-size="8" style="fill:black">altitud: 0</text><text x="910" y="1150" font-size="8" style="fill:black">longitud: 4.807468110763295</text><text x="910" y="1160" font-size="8" style="fill:black">latitud: 114.63856073741455</text><rect x="966" y="1120" width="137" height="40" style="fill:green;stroke:black;stroke-width:1" /><text x="976" y="1130" font-size="8" style="fill:white">Coordenadas Istana Pantai</text><rect x="900" y="1170" width="200" height="40" style="fill:white;stroke:black;stroke-width:1" /><text x="910" y="1180" font-size="10" style="fill:blue">distanciaHitoAnterior</text><path d="M880 1040 C900 1040 880 1190 900 1190" style="fill:transparent;stroke:black" /><text x="910" y="1190" font-size="8" style="fill:black">unidades: km</text><rect x="966" y="1170" width="137" height="40" style="fill:green;stroke:black;stroke-width:1" /><text x="976" y="1180" font-size="8" style="fill:white">2.9</text><rect x="900" y="1220" width="200" height="40" style="fill:white;stroke:black;stroke-width:1" /><text x="910" y="1230" font-size="10" style="fill:blue">galeriaFotos</text><path d="M880 1040 C900 1040 880 1240 900 1240" style="fill:transparent;stroke:black" /><rect x="1120" y="1220" width="200" height="40" style="fill:white;stroke:black;stroke-width:1" /><text x="1130" y="1230" font-size="10" style="fill:blue">foto</text><path d="M1100 1240 C1120 1240 1100 1240 1120 1240" style="fill:transparent;stroke:black" /><rect x="1186" y="1220" width="137" height="40" style="fill:green;stroke:black;stroke-width:1" /><text x="1196" y="1230" font-size="8" style="fill:white">IstanaPantai.jpg</text><rect x="1120" y="1270" width="200" height="40" style="fill:white;stroke:black;stroke-width:1" /><text x="1130" y="1280" font-size="10" style="fill:blue">foto</text><path d="M1100 1240 C1120 1240 1100 1290 1120 1290" style="fill:transparent;stroke:black" /><rect x="1186" y="1270" width="137" height="40" style="fill:green;stroke:black;stroke-width:1" /><text x="1196" y="1280" font-size="8" style="fill:white">IstanaPantai2.jpg</text><rect x="680" y="1420" width="200" height="40" style="fill:white;stroke:black;stroke-width:1" /><text x="690" y="1430" font-size="10" style="fill:blue">hito</text><path d="M660 640 C680 640 660 1440 680 1440" style="fill:transparent;stroke:black" /><rect x="900" y="1420" width="200" height="40" style="fill:white;stroke:black;stroke-width:1" /><text x="910" y="1430" font-size="10" style="fill:blue">nombreHito</text><path d="M880 1440 C900 1440 880 1440 900 1440" style="fill:transparent;stroke:black" /><rect x="966" y="1420" width="137" height="40" style="fill:green;stroke:black;stroke-width:1" /><text x="976" y="1430" font-size="8" style="fill:white">Fujiwara tofu shop</text><rect x="900" y="1470" width="200" height="40" style="fill:white;stroke:black;stroke-width:1" /><text x="910" y="1480" font-size="10" style="fill:blue">descripcionHito</text><path d="M880 1440 C900 1440 880 1490 900 1490" style="fill:transparent;stroke:black" /><rect x="966" y="1470" width="137" height="40" style="fill:green;stroke:black;stroke-width:1" /><text x="976" y="1480" font-size="8" style="fill:white">Gastronomía</text><rect x="900" y="1520" width="200" height="40" style="fill:white;stroke:black;stroke-width:1" /><text x="910" y="1530" font-size="10" style="fill:blue">coordenadasHito</text><path d="M880 1440 C900 1440 880 1540 900 1540" style="fill:transparent;stroke:black" /><text x="910" y="1540" font-size="8" style="fill:black">altitud: 0</text><text x="910" y="1550" font-size="8" style="fill:black">longitud: 4.804738014211636</text><text x="910" y="1560" font-size="8" style="fill:black">latitud: 114.64495983293868</text><rect x="966" y="1520" width="137" height="40" style="fill:green;stroke:black;stroke-width:1" /><text x="976" y="1530" font-size="8" style="fill:white">Coordenadas Istana Pantai</text><rect x="900" y="1570" width="200" height="40" style="fill:white;stroke:black;stroke-width:1" /><text x="910" y="1580" font-size="10" style="fill:blue">distanciaHitoAnterior</text><path d="M880 1440 C900 1440 880 1590 900 1590" style="fill:transparent;stroke:black" /><text x="910" y="1590" font-size="8" style="fill:black">unidades: m</text><rect x="966" y="1570" width="137" height="40" style="fill:green;stroke:black;stroke-width:1" /><text x="976" y="1580" font-size="8" style="fill:white">850</text><rect x="900" y="1620" width="200" height="40" style="fill:white;stroke:black;stroke-width:1" /><text x="910" y="1630" font-size="10" style="fill:blue">galeriaFotos</text><path d="M880 1440 C900 1440 880 1640 900 1640" style="fill:transparent;stroke:black" /><rect x="1120" y="1620" width="200" height="40" style="fill:white;stroke:black;stroke-width:1" /><text x="1130" y="1630" font-size="10" style="fill:blue">foto</text><path d="M1100 1640 C1120 1640 1100 1640 1120 1640" style="fill:transparent;stroke:black" /><rect x="1186" y="1620" width="137" height="40" style="fill:green;stroke:black;stroke-width:1" /><text x="1196" y="1630" font-size="8" style="fill:white">fujiwara.jpg</text><rect x="240" y="1870" width="200" height="40" style="fill:white;stroke:black;stroke-width:1" /><text x="250" y="1880" font-size="10" style="fill:blue">ruta</text><path d="M220 40 C240 40 220 1890 240 1890" style="fill:transparent;stroke:black" /><text x="250" y="1890" font-size="8" style="fill:black">nombreRuta: Ruta turística por centro de la capital de Brunéi, Bandar Ser Begawan</text><text x="250" y="1900" font-size="8" style="fill:black">tipo: Arquitectura, monumentos, cultura</text><text x="250" y="1910" font-size="8" style="fill:black">medio: A pie o transporte público</text><rect x="460" y="1870" width="200" height="40" style="fill:white;stroke:black;stroke-width:1" /><text x="470" y="1880" font-size="10" style="fill:blue">tiempo</text><path d="M440 1890 C460 1890 440 1890 460 1890" style="fill:transparent;stroke:black" /><rect x="526" y="1870" width="137" height="40" style="fill:green;stroke:black;stroke-width:1" /><text x="536" y="1880" font-size="8" style="fill:white">2 horas</text><rect x="460" y="1920" width="200" height="40" style="fill:white;stroke:black;stroke-width:1" /><text x="470" y="1930" font-size="10" style="fill:blue">agencia</text><path d="M440 1890 C460 1890 440 1940 460 1940" style="fill:transparent;stroke:black" /><rect x="526" y="1920" width="137" height="40" style="fill:green;stroke:black;stroke-width:1" /><text x="536" y="1930" font-size="8" style="fill:white">Sin agencia</text><rect x="460" y="1970" width="200" height="40" style="fill:white;stroke:black;stroke-width:1" /><text x="470" y="1980" font-size="10" style="fill:blue">descripcionRuta</text><path d="M440 1890 C460 1890 440 1990 460 1990" style="fill:transparent;stroke:black" /><rect x="526" y="1970" width="137" height="40" style="fill:green;stroke:black;stroke-width:1" /><text x="536" y="1980" font-size="8" style="fill:white">Ruta a través del centro de la ciudad donde se podrán observar Jame' Asr Hassanil Bolkiah Mosque, la gran Mezquita del Sultán Omar Ali Saifuddin y por último la pequeña mezquita Balai Ibadat Kampong Saba.</text><rect x="460" y="2020" width="200" height="40" style="fill:white;stroke:black;stroke-width:1" /><text x="470" y="2030" font-size="10" style="fill:blue">adecuado</text><path d="M440 1890 C460 1890 440 2040 460 2040" style="fill:transparent;stroke:black" /><rect x="526" y="2020" width="137" height="40" style="fill:green;stroke:black;stroke-width:1" /><text x="536" y="2030" font-size="8" style="fill:white">Se puede ir con niños</text><rect x="460" y="2070" width="200" height="40" style="fill:white;stroke:black;stroke-width:1" /><text x="470" y="2080" font-size="10" style="fill:blue">lugarInicio</text><path d="M440 1890 C460 1890 440 2090 460 2090" style="fill:transparent;stroke:black" /><rect x="526" y="2070" width="137" height="40" style="fill:green;stroke:black;stroke-width:1" /><text x="536" y="2080" font-size="8" style="fill:white">Jame' Asr Hassanil Bolkiah Mosque</text><rect x="460" y="2120" width="200" height="40" style="fill:white;stroke:black;stroke-width:1" /><text x="470" y="2130" font-size="10" style="fill:blue">direccionInicio</text><path d="M440 1890 C460 1890 440 2140 460 2140" style="fill:transparent;stroke:black" /><rect x="526" y="2120" width="137" height="40" style="fill:green;stroke:black;stroke-width:1" /><text x="536" y="2130" font-size="8" style="fill:white">Simpang 127, Bandar Seri Begawan, Brunéi</text><rect x="460" y="2170" width="200" height="40" style="fill:white;stroke:black;stroke-width:1" /><text x="470" y="2180" font-size="10" style="fill:blue">coordenadasRuta</text><path d="M440 1890 C460 1890 440 2190 460 2190" style="fill:transparent;stroke:black" /><text x="470" y="2190" font-size="8" style="fill:black">altitud: 50</text><text x="470" y="2200" font-size="8" style="fill:black">latitud: 4.89795093169754</text><text x="470" y="2210" font-size="8" style="fill:black">longitud: 114.92168727801855</text><rect x="526" y="2170" width="137" height="40" style="fill:green;stroke:black;stroke-width:1" /><text x="536" y="2180" font-size="8" style="fill:white">Inicio de la ruta</text><rect x="460" y="2220" width="200" height="40" style="fill:white;stroke:black;stroke-width:1" /><text x="470" y="2230" font-size="10" style="fill:blue">referencias</text><path d="M440 1890 C460 1890 440 2240 460 2240" style="fill:transparent;stroke:black" /><rect x="680" y="2220" width="200" height="40" style="fill:white;stroke:black;stroke-width:1" /><text x="690" y="2230" font-size="10" style="fill:blue">referencia</text><path d="M660 2240 C680 2240 660 2240 680 2240" style="fill:transparent;stroke:black" /><rect x="746" y="2220" width="137" height="40" style="fill:green;stroke:black;stroke-width:1" /><text x="756" y="2230" font-size="8" style="fill:white">https://id.wikipedia.org/wiki/Jame%27_%27Asr_Hassanil_Bolkiah</text><rect x="680" y="2270" width="200" height="40" style="fill:white;stroke:black;stroke-width:1" /><text x="690" y="2280" font-size="10" style="fill:blue">referencia</text><path d="M660 2240 C680 2240 660 2290 680 2290" style="fill:transparent;stroke:black" /><rect x="746" y="2270" width="137" height="40" style="fill:green;stroke:black;stroke-width:1" /><text x="756" y="2280" font-size="8" style="fill:white">https://www.visitsoutheastasia.travel/top-sights/jame-asr-hassanil-bolkiah-mosque/</text><rect x="680" y="2320" width="200" height="40" style="fill:white;stroke:black;stroke-width:1" /><text x="690" y="2330" font-size="10" style="fill:blue">referencia</text><path d="M660 2240 C680 2240 660 2340 680 2340" style="fill:transparent;stroke:black" /><rect x="746" y="2320" width="137" height="40" style="fill:green;stroke:black;stroke-width:1" /><text x="756" y="2330" font-size="8" style="fill:white">https://www.flickr.com/photos/jlascar/18404307540</text><rect x="460" y="2420" width="200" height="40" style="fill:white;stroke:black;stroke-width:1" /><text x="470" y="2430" font-size="10" style="fill:blue">recomendacion</text><path d="M440 1890 C460 1890 440 2440 460 2440" style="fill:transparent;stroke:black" /><rect x="526" y="2420" width="137" height="40" style="fill:green;stroke:black;stroke-width:1" /><text x="536" y="2430" font-size="8" style="fill:white">10</text><rect x="460" y="2470" width="200" height="40" style="fill:white;stroke:black;stroke-width:1" /><text x="470" y="2480" font-size="10" style="fill:blue">hitos</text><path d="M440 1890 C460 1890 440 2490 460 2490" style="fill:transparent;stroke:black" /><rect x="680" y="2470" width="200" height="40" style="fill:white;stroke:black;stroke-width:1" /><text x="690" y="2480" font-size="10" style="fill:blue">hito</text><path d="M660 2490 C680 2490 660 2490 680 2490" style="fill:transparent;stroke:black" /><rect x="900" y="2470" width="200" height="40" style="fill:white;stroke:black;stroke-width:1" /><text x="910" y="2480" font-size="10" style="fill:blue">nombreHito</text><path d="M880 2490 C900 2490 880 2490 900 2490" style="fill:transparent;stroke:black" /><rect x="966" y="2470" width="137" height="40" style="fill:green;stroke:black;stroke-width:1" /><text x="976" y="2480" font-size="8" style="fill:white">Masjid Jame' Asr Hassanil Bolkiah</text><rect x="900" y="2520" width="200" height="40" style="fill:white;stroke:black;stroke-width:1" /><text x="910" y="2530" font-size="10" style="fill:blue">descripcionHito</text><path d="M880 2490 C900 2490 880 2540 900 2540" style="fill:transparent;stroke:black" /><rect x="966" y="2520" width="137" height="40" style="fill:green;stroke:black;stroke-width:1" /><text x="976" y="2530" font-size="8" style="fill:white">Mezquita impresionante</text><rect x="900" y="2570" width="200" height="40" style="fill:white;stroke:black;stroke-width:1" /><text x="910" y="2580" font-size="10" style="fill:blue">coordenadasHito</text><path d="M880 2490 C900 2490 880 2590 900 2590" style="fill:transparent;stroke:black" /><text x="910" y="2590" font-size="8" style="fill:black">altitud: 50</text><text x="910" y="2600" font-size="8" style="fill:black">longitud: 114.92168727801855</text><text x="910" y="2610" font-size="8" style="fill:black">latitud: 4.89795093169754</text><rect x="966" y="2570" width="137" height="40" style="fill:green;stroke:black;stroke-width:1" /><text x="976" y="2580" font-size="8" style="fill:white">Coordenadas Masjid Jame' Asr Hassanil Bolkiah</text><rect x="900" y="2620" width="200" height="40" style="fill:white;stroke:black;stroke-width:1" /><text x="910" y="2630" font-size="10" style="fill:blue">distanciaHitoAnterior</text><path d="M880 2490 C900 2490 880 2640 900 2640" style="fill:transparent;stroke:black" /><text x="910" y="2640" font-size="8" style="fill:black">unidades: km</text><rect x="966" y="2620" width="137" height="40" style="fill:green;stroke:black;stroke-width:1" /><text x="976" y="2630" font-size="8" style="fill:white">0</text><rect x="900" y="2670" width="200" height="40" style="fill:white;stroke:black;stroke-width:1" /><text x="910" y="2680" font-size="10" style="fill:blue">galeriaFotos</text><path d="M880 2490 C900 2490 880 2690 900 2690" style="fill:transparent;stroke:black" /><rect x="1120" y="2670" width="200" height="40" style="fill:white;stroke:black;stroke-width:1" /><text x="1130" y="2680" font-size="10" style="fill:blue">foto</text><path d="M1100 2690 C1120 2690 1100 2690 1120 2690" style="fill:transparent;stroke:black" /><rect x="1186" y="2670" width="137" height="40" style="fill:green;stroke:black;stroke-width:1" /><text x="1196" y="2680" font-size="8" style="fill:white">MasjidJame.jpg</text><rect x="1120" y="2720" width="200" height="40" style="fill:white;stroke:black;stroke-width:1" /><text x="1130" y="2730" font-size="10" style="fill:blue">foto</text><path d="M1100 2690 C1120 2690 1100 2740 1120 2740" style="fill:transparent;stroke:black" /><rect x="1186" y="2720" width="137" height="40" style="fill:green;stroke:black;stroke-width:1" /><text x="1196" y="2730" font-size="8" style="fill:white">MasjidJame2.jpg</text><rect x="680" y="2870" width="200" height="40" style="fill:white;stroke:black;stroke-width:1" /><text x="690" y="2880" font-size="10" style="fill:blue">hito</text><path d="M660 2490 C680 2490 660 2890 680 2890" style="fill:transparent;stroke:black" /><rect x="900" y="2870" width="200" height="40" style="fill:white;stroke:black;stroke-width:1" /><text x="910" y="2880" font-size="10" style="fill:blue">nombreHito</text><path d="M880 2890 C900 2890 880 2890 900 2890" style="fill:transparent;stroke:black" /><rect x="966" y="2870" width="137" height="40" style="fill:green;stroke:black;stroke-width:1" /><text x="976" y="2880" font-size="8" style="fill:white">Mezquita del Sultán Omar Ali Saifuddin</text><rect x="900" y="2920" width="200" height="40" style="fill:white;stroke:black;stroke-width:1" /><text x="910" y="2930" font-size="10" style="fill:blue">descripcionHito</text><path d="M880 2890 C900 2890 880 2940 900 2940" style="fill:transparent;stroke:black" /><rect x="966" y="2920" width="137" height="40" style="fill:green;stroke:black;stroke-width:1" /><text x="976" y="2930" font-size="8" style="fill:white">Mezquita principal</text><rect x="900" y="2970" width="200" height="40" style="fill:white;stroke:black;stroke-width:1" /><text x="910" y="2980" font-size="10" style="fill:blue">coordenadasHito</text><path d="M880 2890 C900 2890 880 2990 900 2990" style="fill:transparent;stroke:black" /><text x="910" y="2990" font-size="8" style="fill:black">altitud: 50</text><text x="910" y="3000" font-size="8" style="fill:black">longitud: 114.93923818155807</text><text x="910" y="3010" font-size="8" style="fill:black">latitud: 4.889449185213048</text><rect x="966" y="2970" width="137" height="40" style="fill:green;stroke:black;stroke-width:1" /><text x="976" y="2980" font-size="8" style="fill:white">Coordenadas Masjid Jame' Asr Hassanil Bolkiah</text><rect x="900" y="3020" width="200" height="40" style="fill:white;stroke:black;stroke-width:1" /><text x="910" y="3030" font-size="10" style="fill:blue">distanciaHitoAnterior</text><path d="M880 2890 C900 2890 880 3040 900 3040" style="fill:transparent;stroke:black" /><text x="910" y="3040" font-size="8" style="fill:black">unidades: km</text><rect x="966" y="3020" width="137" height="40" style="fill:green;stroke:black;stroke-width:1" /><text x="976" y="3030" font-size="8" style="fill:white">3.3</text><rect x="900" y="3070" width="200" height="40" style="fill:white;stroke:black;stroke-width:1" /><text x="910" y="3080" font-size="10" style="fill:blue">galeriaFotos</text><path d="M880 2890 C900 2890 880 3090 900 3090" style="fill:transparent;stroke:black" /><rect x="1120" y="3070" width="200" height="40" style="fill:white;stroke:black;stroke-width:1" /><text x="1130" y="3080" font-size="10" style="fill:blue">foto</text><path d="M1100 3090 C1120 3090 1100 3090 1120 3090" style="fill:transparent;stroke:black" /><rect x="1186" y="3070" width="137" height="40" style="fill:green;stroke:black;stroke-width:1" /><text x="1196" y="3080" font-size="8" style="fill:white">SultanOmarAli.jpg</text><rect x="1120" y="3120" width="200" height="40" style="fill:white;stroke:black;stroke-width:1" /><text x="1130" y="3130" font-size="10" style="fill:blue">foto</text><path d="M1100 3090 C1120 3090 1100 3140 1120 3140" style="fill:transparent;stroke:black" /><rect x="1186" y="3120" width="137" height="40" style="fill:green;stroke:black;stroke-width:1" /><text x="1196" y="3130" font-size="8" style="fill:white">SultanOmarAli2.jpg</text><rect x="680" y="3270" width="200" height="40" style="fill:white;stroke:black;stroke-width:1" /><text x="690" y="3280" font-size="10" style="fill:blue">hito</text><path d="M660 2490 C680 2490 660 3290 680 3290" style="fill:transparent;stroke:black" /><rect x="900" y="3270" width="200" height="40" style="fill:white;stroke:black;stroke-width:1" /><text x="910" y="3280" font-size="10" style="fill:blue">nombreHito</text><path d="M880 3290 C900 3290 880 3290 900 3290" style="fill:transparent;stroke:black" /><rect x="966" y="3270" width="137" height="40" style="fill:green;stroke:black;stroke-width:1" /><text x="976" y="3280" font-size="8" style="fill:white">Balai Ibadat Kampong Saba</text><rect x="900" y="3320" width="200" height="40" style="fill:white;stroke:black;stroke-width:1" /><text x="910" y="3330" font-size="10" style="fill:blue">descripcionHito</text><path d="M880 3290 C900 3290 880 3340 900 3340" style="fill:transparent;stroke:black" /><rect x="966" y="3320" width="137" height="40" style="fill:green;stroke:black;stroke-width:1" /><text x="976" y="3330" font-size="8" style="fill:white">Mezquita en barrio pobre</text><rect x="900" y="3370" width="200" height="40" style="fill:white;stroke:black;stroke-width:1" /><text x="910" y="3380" font-size="10" style="fill:blue">coordenadasHito</text><path d="M880 3290 C900 3290 880 3390 900 3390" style="fill:transparent;stroke:black" /><text x="910" y="3390" font-size="8" style="fill:black">altitud: 50</text><text x="910" y="3400" font-size="8" style="fill:black">longitud: 114.94441376981506</text><text x="910" y="3410" font-size="8" style="fill:black">latitud: 4.901602526126973</text><rect x="966" y="3370" width="137" height="40" style="fill:green;stroke:black;stroke-width:1" /><text x="976" y="3380" font-size="8" style="fill:white">Coordenadas Masjid Jame' Asr Hassanil Bolkiah</text><rect x="900" y="3420" width="200" height="40" style="fill:white;stroke:black;stroke-width:1" /><text x="910" y="3430" font-size="10" style="fill:blue">distanciaHitoAnterior</text><path d="M880 3290 C900 3290 880 3440 900 3440" style="fill:transparent;stroke:black" /><text x="910" y="3440" font-size="8" style="fill:black">unidades: km</text><rect x="966" y="3420" width="137" height="40" style="fill:green;stroke:black;stroke-width:1" /><text x="976" y="3430" font-size="8" style="fill:white">5.5</text><rect x="900" y="3470" width="200" height="40" style="fill:white;stroke:black;stroke-width:1" /><text x="910" y="3480" font-size="10" style="fill:blue">galeriaFotos</text><path d="M880 3290 C900 3290 880 3490 900 3490" style="fill:transparent;stroke:black" /><rect x="1120" y="3470" width="200" height="40" style="fill:white;stroke:black;stroke-width:1" /><text x="1130" y="3480" font-size="10" style="fill:blue">foto</text><path d="M1100 3490 C1120 3490 1100 3490 1120 3490" style="fill:transparent;stroke:black" /><rect x="1186" y="3470" width="137" height="40" style="fill:green;stroke:black;stroke-width:1" /><text x="1196" y="3480" font-size="8" style="fill:white">BalaiIbadat.jpg</text><rect x="240" y="3720" width="200" height="40" style="fill:white;stroke:black;stroke-width:1" /><text x="250" y="3730" font-size="10" style="fill:blue">ruta</text><path d="M220 40 C240 40 220 3740 240 3740" style="fill:transparent;stroke:black" /><text x="250" y="3740" font-size="8" style="fill:black">nombreRuta: Ruta forestal</text><text x="250" y="3750" font-size="8" style="fill:black">tipo: Senderismo/Paisajística</text><text x="250" y="3760" font-size="8" style="fill:black">medio: A pie</text><rect x="460" y="3720" width="200" height="40" style="fill:white;stroke:black;stroke-width:1" /><text x="470" y="3730" font-size="10" style="fill:blue">tiempo</text><path d="M440 3740 C460 3740 440 3740 460 3740" style="fill:transparent;stroke:black" /><rect x="526" y="3720" width="137" height="40" style="fill:green;stroke:black;stroke-width:1" /><text x="536" y="3730" font-size="8" style="fill:white">4 horas y 15 minutos</text><rect x="460" y="3770" width="200" height="40" style="fill:white;stroke:black;stroke-width:1" /><text x="470" y="3780" font-size="10" style="fill:blue">agencia</text><path d="M440 3740 C460 3740 440 3790 460 3790" style="fill:transparent;stroke:black" /><rect x="526" y="3770" width="137" height="40" style="fill:green;stroke:black;stroke-width:1" /><text x="536" y="3780" font-size="8" style="fill:white">Sin agencia</text><rect x="460" y="3820" width="200" height="40" style="fill:white;stroke:black;stroke-width:1" /><text x="470" y="3830" font-size="10" style="fill:blue">descripcionRuta</text><path d="M440 3740 C460 3740 440 3840 460 3840" style="fill:transparent;stroke:black" /><rect x="526" y="3820" width="137" height="40" style="fill:green;stroke:black;stroke-width:1" /><text x="536" y="3830" font-size="8" style="fill:white">Ruta a través de diferentes bosques en Brunéi</text><rect x="460" y="3870" width="200" height="40" style="fill:white;stroke:black;stroke-width:1" /><text x="470" y="3880" font-size="10" style="fill:blue">adecuado</text><path d="M440 3740 C460 3740 440 3890 460 3890" style="fill:transparent;stroke:black" /><rect x="526" y="3870" width="137" height="40" style="fill:green;stroke:black;stroke-width:1" /><text x="536" y="3880" font-size="8" style="fill:white">Se puede ir con niños, aunque se pueden cansar</text><rect x="460" y="3920" width="200" height="40" style="fill:white;stroke:black;stroke-width:1" /><text x="470" y="3930" font-size="10" style="fill:blue">lugarInicio</text><path d="M440 3740 C460 3740 440 3940 460 3940" style="fill:transparent;stroke:black" /><rect x="526" y="3920" width="137" height="40" style="fill:green;stroke:black;stroke-width:1" /><text x="536" y="3930" font-size="8" style="fill:white">Kargo Dam</text><rect x="460" y="3970" width="200" height="40" style="fill:white;stroke:black;stroke-width:1" /><text x="470" y="3980" font-size="10" style="fill:blue">direccionInicio</text><path d="M440 3740 C460 3740 440 3990 460 3990" style="fill:transparent;stroke:black" /><rect x="526" y="3970" width="137" height="40" style="fill:green;stroke:black;stroke-width:1" /><text x="536" y="3980" font-size="8" style="fill:white">HHR3+5P5 Kargo Dam, Bang Bingol, Brunéi</text><rect x="460" y="4020" width="200" height="40" style="fill:white;stroke:black;stroke-width:1" /><text x="470" y="4030" font-size="10" style="fill:blue">coordenadasRuta</text><path d="M440 3740 C460 3740 440 4040 460 4040" style="fill:transparent;stroke:black" /><text x="470" y="4040" font-size="8" style="fill:black">altitud: 200</text><text x="470" y="4050" font-size="8" style="fill:black">latitud: 4.5916878965355155</text><text x="470" y="4060" font-size="8" style="fill:black">longitud: 114.55407735158468</text><rect x="526" y="4020" width="137" height="40" style="fill:green;stroke:black;stroke-width:1" /><text x="536" y="4030" font-size="8" style="fill:white">Inicio de la ruta</text><rect x="460" y="4070" width="200" height="40" style="fill:white;stroke:black;stroke-width:1" /><text x="470" y="4080" font-size="10" style="fill:blue">referencias</text><path d="M440 3740 C460 3740 440 4090 460 4090" style="fill:transparent;stroke:black" /><rect x="680" y="4070" width="200" height="40" style="fill:white;stroke:black;stroke-width:1" /><text x="690" y="4080" font-size="10" style="fill:blue">referencia</text><path d="M660 4090 C680 4090 660 4090 680 4090" style="fill:transparent;stroke:black" /><rect x="746" y="4070" width="137" height="40" style="fill:green;stroke:black;stroke-width:1" /><text x="756" y="4080" font-size="8" style="fill:white">https://www.asonicassociates.com/portfolio-item/rehabilitation-of-kargo-dam-jaji-kaduna-state/</text><rect x="680" y="4120" width="200" height="40" style="fill:white;stroke:black;stroke-width:1" /><text x="690" y="4130" font-size="10" style="fill:blue">referencia</text><path d="M660 4090 C680 4090 660 4140 680 4140" style="fill:transparent;stroke:black" /><rect x="746" y="4120" width="137" height="40" style="fill:green;stroke:black;stroke-width:1" /><text x="756" y="4130" font-size="8" style="fill:white">https://en.wikipedia.org/wiki/Lalak_Lake</text><rect x="680" y="4170" width="200" height="40" style="fill:white;stroke:black;stroke-width:1" /><text x="690" y="4180" font-size="10" style="fill:blue">referencia</text><path d="M660 4090 C680 4090 660 4190 680 4190" style="fill:transparent;stroke:black" /><rect x="746" y="4170" width="137" height="40" style="fill:green;stroke:black;stroke-width:1" /><text x="756" y="4180" font-size="8" style="fill:white">https://www.bruneitourism.com/bruneiplaces/luagan-lalak-recreation-park/</text><rect x="460" y="4270" width="200" height="40" style="fill:white;stroke:black;stroke-width:1" /><text x="470" y="4280" font-size="10" style="fill:blue">recomendacion</text><path d="M440 3740 C460 3740 440 4290 460 4290" style="fill:transparent;stroke:black" /><rect x="526" y="4270" width="137" height="40" style="fill:green;stroke:black;stroke-width:1" /><text x="536" y="4280" font-size="8" style="fill:white">7</text><rect x="460" y="4320" width="200" height="40" style="fill:white;stroke:black;stroke-width:1" /><text x="470" y="4330" font-size="10" style="fill:blue">hitos</text><path d="M440 3740 C460 3740 440 4340 460 4340" style="fill:transparent;stroke:black" /><rect x="680" y="4320" width="200" height="40" style="fill:white;stroke:black;stroke-width:1" /><text x="690" y="4330" font-size="10" style="fill:blue">hito</text><path d="M660 4340 C680 4340 660 4340 680 4340" style="fill:transparent;stroke:black" /><rect x="900" y="4320" width="200" height="40" style="fill:white;stroke:black;stroke-width:1" /><text x="910" y="4330" font-size="10" style="fill:blue">nombreHito</text><path d="M880 4340 C900 4340 880 4340 900 4340" style="fill:transparent;stroke:black" /><rect x="966" y="4320" width="137" height="40" style="fill:green;stroke:black;stroke-width:1" /><text x="976" y="4330" font-size="8" style="fill:white">Kargo Dam</text><rect x="900" y="4370" width="200" height="40" style="fill:white;stroke:black;stroke-width:1" /><text x="910" y="4380" font-size="10" style="fill:blue">descripcionHito</text><path d="M880 4340 C900 4340 880 4390 900 4390" style="fill:transparent;stroke:black" /><rect x="900" y="4420" width="200" height="40" style="fill:white;stroke:black;stroke-width:1" /><text x="910" y="4430" font-size="10" style="fill:blue">coordenadasHito</text><path d="M880 4340 C900 4340 880 4440 900 4440" style="fill:transparent;stroke:black" /><text x="910" y="4440" font-size="8" style="fill:black">altitud: 200</text><text x="910" y="4450" font-size="8" style="fill:black">latitud: 4.5916878965355155</text><text x="910" y="4460" font-size="8" style="fill:black">longitud: 114.55407735158468</text><rect x="966" y="4420" width="137" height="40" style="fill:green;stroke:black;stroke-width:1" /><text x="976" y="4430" font-size="8" style="fill:white">Coordenadas Kargo Dam</text><rect x="900" y="4470" width="200" height="40" style="fill:white;stroke:black;stroke-width:1" /><text x="910" y="4480" font-size="10" style="fill:blue">distanciaHitoAnterior</text><path d="M880 4340 C900 4340 880 4490 900 4490" style="fill:transparent;stroke:black" /><text x="910" y="4490" font-size="8" style="fill:black">unidades: km</text><rect x="966" y="4470" width="137" height="40" style="fill:green;stroke:black;stroke-width:1" /><text x="976" y="4480" font-size="8" style="fill:white">0</text><rect x="900" y="4520" width="200" height="40" style="fill:white;stroke:black;stroke-width:1" /><text x="910" y="4530" font-size="10" style="fill:blue">galeriaFotos</text><path d="M880 4340 C900 4340 880 4540 900 4540" style="fill:transparent;stroke:black" /><rect x="1120" y="4520" width="200" height="40" style="fill:white;stroke:black;stroke-width:1" /><text x="1130" y="4530" font-size="10" style="fill:blue">foto</text><path d="M1100 4540 C1120 4540 1100 4540 1120 4540" style="fill:transparent;stroke:black" /><rect x="1186" y="4520" width="137" height="40" style="fill:green;stroke:black;stroke-width:1" /><text x="1196" y="4530" font-size="8" style="fill:white">KargoDam.jpg</text><rect x="680" y="4670" width="200" height="40" style="fill:white;stroke:black;stroke-width:1" /><text x="690" y="4680" font-size="10" style="fill:blue">hito</text><path d="M660 4340 C680 4340 660 4690 680 4690" style="fill:transparent;stroke:black" /><rect x="900" y="4670" width="200" height="40" style="fill:white;stroke:black;stroke-width:1" /><text x="910" y="4680" font-size="10" style="fill:blue">nombreHito</text><path d="M880 4690 C900 4690 880 4690 900 4690" style="fill:transparent;stroke:black" /><rect x="966" y="4670" width="137" height="40" style="fill:green;stroke:black;stroke-width:1" /><text x="976" y="4680" font-size="8" style="fill:white">Taman Rekreasi Sg.Mau</text><rect x="900" y="4720" width="200" height="40" style="fill:white;stroke:black;stroke-width:1" /><text x="910" y="4730" font-size="10" style="fill:blue">descripcionHito</text><path d="M880 4690 C900 4690 880 4740 900 4740" style="fill:transparent;stroke:black" /><rect x="900" y="4770" width="200" height="40" style="fill:white;stroke:black;stroke-width:1" /><text x="910" y="4780" font-size="10" style="fill:blue">coordenadasHito</text><path d="M880 4690 C900 4690 880 4790 900 4790" style="fill:transparent;stroke:black" /><text x="910" y="4790" font-size="8" style="fill:black">altitud: 200</text><text x="910" y="4800" font-size="8" style="fill:black">latitud: 4.553491810192945</text><text x="910" y="4810" font-size="8" style="fill:black">longitud: 114.49034991825599</text><rect x="966" y="4770" width="137" height="40" style="fill:green;stroke:black;stroke-width:1" /><text x="976" y="4780" font-size="8" style="fill:white">Coordenadas Taman Rekreasi Sg.Mau</text><rect x="900" y="4820" width="200" height="40" style="fill:white;stroke:black;stroke-width:1" /><text x="910" y="4830" font-size="10" style="fill:blue">distanciaHitoAnterior</text><path d="M880 4690 C900 4690 880 4840 900 4840" style="fill:transparent;stroke:black" /><text x="910" y="4840" font-size="8" style="fill:black">unidades: km</text><rect x="966" y="4820" width="137" height="40" style="fill:green;stroke:black;stroke-width:1" /><text x="976" y="4830" font-size="8" style="fill:white">12.2</text><rect x="900" y="4870" width="200" height="40" style="fill:white;stroke:black;stroke-width:1" /><text x="910" y="4880" font-size="10" style="fill:blue">galeriaFotos</text><path d="M880 4690 C900 4690 880 4890 900 4890" style="fill:transparent;stroke:black" /><rect x="1120" y="4870" width="200" height="40" style="fill:white;stroke:black;stroke-width:1" /><text x="1130" y="4880" font-size="10" style="fill:blue">foto</text><path d="M1100 4890 C1120 4890 1100 4890 1120 4890" style="fill:transparent;stroke:black" /><rect x="1186" y="4870" width="137" height="40" style="fill:green;stroke:black;stroke-width:1" /><text x="1196" y="4880" font-size="8" style="fill:white">TamanRekreasi.jpg</text><rect x="680" y="5020" width="200" height="40" style="fill:white;stroke:black;stroke-width:1" /><text x="690" y="5030" font-size="10" style="fill:blue">hito</text><path d="M660 4340 C680 4340 660 5040 680 5040" style="fill:transparent;stroke:black" /><rect x="900" y="5020" width="200" height="40" style="fill:white;stroke:black;stroke-width:1" /><text x="910" y="5030" font-size="10" style="fill:blue">nombreHito</text><path d="M880 5040 C900 5040 880 5040 900 5040" style="fill:transparent;stroke:black" /><rect x="966" y="5020" width="137" height="40" style="fill:green;stroke:black;stroke-width:1" /><text x="976" y="5030" font-size="8" style="fill:white">Lalak Lake National Park</text><rect x="900" y="5070" width="200" height="40" style="fill:white;stroke:black;stroke-width:1" /><text x="910" y="5080" font-size="10" style="fill:blue">descripcionHito</text><path d="M880 5040 C900 5040 880 5090 900 5090" style="fill:transparent;stroke:black" /><rect x="900" y="5120" width="200" height="40" style="fill:white;stroke:black;stroke-width:1" /><text x="910" y="5130" font-size="10" style="fill:blue">coordenadasHito</text><path d="M880 5040 C900 5040 880 5140 900 5140" style="fill:transparent;stroke:black" /><text x="910" y="5140" font-size="8" style="fill:black">altitud: 200</text><text x="910" y="5150" font-size="8" style="fill:black">latitud: 4.515360715730574</text><text x="910" y="5160" font-size="8" style="fill:black">longitud: 114.47529147481819</text><rect x="966" y="5120" width="137" height="40" style="fill:green;stroke:black;stroke-width:1" /><text x="976" y="5130" font-size="8" style="fill:white">Coordenadas Lalak Lake National Park</text><rect x="900" y="5170" width="200" height="40" style="fill:white;stroke:black;stroke-width:1" /><text x="910" y="5180" font-size="10" style="fill:blue">distanciaHitoAnterior</text><path d="M880 5040 C900 5040 880 5190 900 5190" style="fill:transparent;stroke:black" /><text x="910" y="5190" font-size="8" style="fill:black">unidades: km</text><rect x="966" y="5170" width="137" height="40" style="fill:green;stroke:black;stroke-width:1" /><text x="976" y="5180" font-size="8" style="fill:white">6.6</text><rect x="900" y="5220" width="200" height="40" style="fill:white;stroke:black;stroke-width:1" /><text x="910" y="5230" font-size="10" style="fill:blue">galeriaFotos</text><path d="M880 5040 C900 5040 880 5240 900 5240" style="fill:transparent;stroke:black" /><rect x="1120" y="5220" width="200" height="40" style="fill:white;stroke:black;stroke-width:1" /><text x="1130" y="5230" font-size="10" style="fill:blue">foto</text><path d="M1100 5240 C1120 5240 1100 5240 1120 5240" style="fill:transparent;stroke:black" /><rect x="1186" y="5220" width="137" height="40" style="fill:green;stroke:black;stroke-width:1" /><text x="1196" y="5230" font-size="8" style="fill:white">LalakLake.jpg</text><rect x="1120" y="5270" width="200" height="40" style="fill:white;stroke:black;stroke-width:1" /><text x="1130" y="5280" font-size="10" style="fill:blue">foto</text><path d="M1100 5240 C1120 5240 1100 5290 1120 5290" style="fill:transparent;stroke:black" /><rect x="1186" y="5270" width="137" height="40" style="fill:green;stroke:black;stroke-width:1" /><text x="1196" y="5280" font-size="8" style="fill:white">LalakLake2.jpg</text></svg>